<svg xmlns="http://www.w3.org/2000/svg" viewBox="0 0 1440 320"><path fill="#1D1E28" fill-opacity="1" d="M0,224L21.8,192C43.6,160,87,96,131,64C174.5,32,218,32,262,64C305.5,96,349,160,393,170.7C436.4,181,480,139,524,133.3C567.3,128,611,160,655,170.7C698.2,181,742,171,785,170.7C829.1,171,873,181,916,176C960,171,1004,149,1047,133.3C1090.9,117,1135,107,1178,117.3C1221.8,128,1265,160,1309,181.3C1352.7,203,1396,213,1418,218.7L1440,224L1440,320L1418.2,320C1396.4,320,1353,320,1309,320C1265.5,320,1222,320,1178,320C1134.5,320,1091,320,1047,320C1003.6,320,960,320,916,320C872.7,320,829,320,785,320C741.8,320,698,320,655,320C610.9,320,567,320,524,320C480,320,436,320,393,320C349.1,320,305,320,262,320C218.2,320,175,320,131,320C87.3,320,44,320,22,320L0,320Z"></path></svg>